<?xml version="1.0" ?><svg height="60px" version="1.1" viewBox="0 0 60 60" width="60px" xmlns="http://www.w3.org/2000/svg" xmlns:xlink="http://www.w3.org/1999/xlink"><title/><desc/><defs><linearGradient id="linearGradient-1" x1="13.6491915%" x2="86.3508085%" y1="16.8383863%" y2="83.1616331%"><stop offset="0%" stop-color="#D3DFF2"/><stop offset="17.173%" stop-color="#D3DFF2"/><stop offset="20%" stop-color="#D3DFF2"/><stop offset="20.016%" stop-color="#DAE2F2"/><stop offset="20.071%" stop-color="#EBEAF2"/><stop offset="20.138%" stop-color="#F6EFF2"/><stop offset="20.232%" stop-color="#FDF2F2"/><stop offset="20.495%" stop-color="#FFF3F2"/><stop offset="25.222%" stop-color="#FFF3F2"/><stop offset="26%" stop-color="#FFF3F2"/><stop offset="26%" stop-color="#D3DFF2"/><stop offset="39.739%" stop-color="#D3DFF2"/><stop offset="42%" stop-color="#D3DFF2"/><stop offset="42.016%" stop-color="#DAE2F2"/><stop offset="42.071%" stop-color="#EBEAF2"/><stop offset="42.138%" stop-color="#F6EFF2"/><stop offset="42.232%" stop-color="#FDF2F2"/><stop offset="42.495%" stop-color="#FFF3F2"/><stop offset="48.939%" stop-color="#FFF3F2"/><stop offset="50%" stop-color="#FFF3F2"/><stop offset="50.003%" stop-color="#F8F0F2"/><stop offset="50.014%" stop-color="#E7E8F2"/><stop offset="50.028%" stop-color="#DCE3F2"/><stop offset="50.047%" stop-color="#D5E0F2"/><stop offset="50.1%" stop-color="#D3DFF2"/><stop offset="70.622%" stop-color="#D3DFF2"/><stop offset="74%" stop-color="#D3DFF2"/><stop offset="74.1%" stop-color="#FFF3F2"/><stop offset="83.459%" stop-color="#FFF3F2"/><stop offset="85%" stop-color="#FFF3F2"/><stop offset="85.1%" stop-color="#D3DFF2"/></linearGradient></defs><g fill="none" fill-rule="evenodd" id="Page-1" stroke="none" stroke-width="1"><g fill-rule="nonzero" id="013---Playlist"><g id="Icons" transform="translate(1.000000, 1.000000)"><path d="M58,29.005 C57.9846946,36.6805529 54.920601,44.0355874 49.4819139,49.4517695 C44.0432269,54.8679516 36.6755503,57.9015214 29,57.885 C28.33,57.885 27.66,57.865 27,57.805 C11.8148168,56.8242902 9.32587341e-15,44.221819 7.54951657e-15,29.005 C5.77315973e-15,13.788181 11.8148168,1.18570975 27,0.205 C27.66,0.145 28.33,0.125 29,0.125 C36.6755511,0.108475955 44.0432292,3.14204484 49.4819168,8.55822756 C54.9206045,13.9744103 57.9846973,21.3294463 58,29.005 Z" fill="#6D9AFA" id="Shape"/><ellipse cx="27" cy="29.005" fill="#CCDBF2" id="Oval" rx="27" ry="28.79999"/><path d="M55,29.005 C54.9517585,43.3249643 43.3200343,54.9030037 29,54.885 C28.16,54.885 27.33,54.845 26.5,54.765 C13.1870891,53.5408138 3.00007599,42.3740773 3.00007599,29.005 C3.00007599,15.6359227 13.1870891,4.46918623 26.5,3.245 C27.33,3.165 28.16,3.125 29,3.125 C43.3200433,3.10697426 54.9517805,14.6850265 55,29.005 Z" fill="#95B4F6" id="Shape"/><ellipse cx="26.5" cy="29.005" fill="url(#linearGradient-1)" id="Oval" rx="23.5" ry="25.76001"/><path d="M22.62,25.75 L20.59,27.17 L15.38,30.84 C15.1067926,31.0276827 14.7513824,31.0461983 14.4601518,30.8879208 C14.1689211,30.7296432 13.991128,30.4213433 14,30.09 L14,19.91 C13.9911505,19.578666 14.1689471,19.2703838 14.460169,19.112111 C14.7513909,18.9538382 15.1067882,18.9723412 15.38,19.16 L22.62,24.25 C22.8602796,24.4242947 23.0025029,24.7031618 23.0025029,25 C23.0025029,25.2968382 22.8602796,25.5757053 22.62,25.75 Z" fill="#CCDBF2" id="Shape"/><path d="M20.59,27.17 L15.38,30.84 C15.1067926,31.0276827 14.7513824,31.0461983 14.4601518,30.8879208 C14.1689211,30.7296432 13.991128,30.4213433 14,30.09 L14,21.87 L20.23,26.25 C20.5242424,26.4562487 20.6661207,26.8188266 20.59,27.17 Z" fill="#DEE2F0" id="Shape"/><rect fill="#CCDBF2" height="4" id="Rectangle-path" rx="2" width="17" x="27" y="19.05478"/><rect fill="#CCDBF2" height="4" id="Rectangle-path" rx="2" width="17" x="27" y="27.05478"/><rect fill="#CCDBF2" height="4" id="Rectangle-path" rx="2" width="30" x="14" y="35.05478"/><rect fill="#DEE2F0" height="4" id="Rectangle-path" rx="2" width="13.63935" x="27.36065" y="19.05478"/><rect fill="#DEE2F0" height="4" id="Rectangle-path" rx="2" width="13.63935" x="27.36065" y="27.05478"/><rect fill="#DEE2F0" height="4" id="Rectangle-path" rx="2" width="27" x="14" y="35.05478"/></g><g fill="#FFFFFF" id="Layer_13" transform="translate(2.000000, 1.000000)"><path d="M30.45,57.87 C19.7910404,58.3836418 9.71612985,52.98292 4.24340019,43.8217804 C-1.22932948,34.6606408 -1.20953185,23.2294893 4.29489728,14.0873611 C9.7993264,4.94523284 19.8928835,-0.420559164 30.55,0.13 C15.145871,0.847513201 3.01788694,13.53155 2.99117961,28.9523574 C2.96447229,44.3731649 15.0484487,57.0991344 30.45,57.87 Z" id="Shape"/></g><g id="Outline"><path d="M16.0625,5.85953 C6.29895569,11.5307039 0.867414662,22.4858296 2.26407,33.69022 C4.13260345,47.7767994 16.2972457,58.20376 30.50388,57.89606 C37.36086,57.7107229 43.9194184,55.0515392 48.9693,50.40921 C56.6725991,43.3491468 59.7637049,32.5642258 56.9697493,22.4955059 C54.1757938,12.4267859 45.9692221,4.77684232 35.72937,2.6958 C29.0071003,1.32575607 22.015962,2.45039227 16.0625,5.85953 L15.0625,4.12753 C21.4401458,0.474031721 28.9302022,-0.731358155 36.13208,0.73676 C47.0891845,2.99278422 55.8621628,11.1911964 58.8540771,21.9706321 C61.8459914,32.7500677 58.5535731,44.2973225 50.32672,51.878 C44.9178338,56.8519544 37.8913296,59.6999282 30.54572,59.89561 C19.3492439,60.1674346 8.94642544,54.1363555 3.61904865,44.2847555 C-1.70832814,34.4331555 -1.05991972,22.4259862 5.29739,13.20538 C7.83730046,9.4912785 11.1732441,6.39010546 15.0625,4.1275 L16.0625,5.85953 Z" fill="#FFFFFF" id="Shape"/><path d="M36.13208,0.73676 C28.930206,-0.731377442 21.4401462,0.474002318 15.0625,4.1275 L13.32526,5.24908 L12.45941,5.8139 L11.65082,6.45898 C11.4374223,6.62178765 11.2991005,6.86411571 11.2674268,7.13065215 C11.2357531,7.39718859 11.3134309,7.66518483 11.48273,7.87347 C11.8280784,8.29304826 12.4426698,8.3660806 12.87673,8.03912 L13.63027,7.4353 L14.44045,6.9093 L16.06245,5.8595 C22.0159354,2.45037612 29.0070876,1.3257512 35.72937,2.6958 C45.9520337,4.80080655 54.1367306,12.4500995 56.9274694,22.5072205 C59.7182081,32.5643416 56.6455173,43.3374339 48.9693,50.40918 C43.9194306,55.0515134 37.3608835,57.7107075 30.50391,57.89606 C20.0565751,58.1522179 10.3488086,52.5255282 5.37803968,43.3329289 C0.407270798,34.1403297 1.01401525,22.9362131 6.94843,14.33417 L7.49304,13.53705 C7.79797623,13.0954068 7.7130479,12.4936836 7.29779,12.15369 C7.08711957,11.9833133 6.8152333,11.9079188 6.5469046,11.9454682 C6.2785759,11.9830175 6.03782945,12.1301489 5.88202,12.35181 L5.29742,13.20538 C-1.03696802,22.4302124 -1.67328076,34.4250218 3.6495651,44.268259 C8.97241095,54.1114961 19.3582561,60.1459444 30.54572,59.89563 C37.8913336,59.69994 44.9178382,56.8519553 50.32672,51.87799 C58.5806943,44.3090149 61.8915517,32.749919 58.8964148,21.9588751 C55.9012779,11.1678311 47.1063945,2.96877631 36.13208,0.73676 Z" fill="#3576FF" id="Shape"/><path d="M9.2923,10.88452 C9.55342562,10.8810389 9.80397872,10.7808255 9.99548,10.60327 C10.1759952,10.4198835 10.2789839,10.1740427 10.28308,9.91675 L10.26257,9.72711 C10.2503725,9.66080525 10.2296751,9.59635034 10.20099,9.53534 C10.1819658,9.47453824 10.1541226,9.41685714 10.11835,9.36414 C10.080713,9.30865054 10.0393371,9.25579134 9.99451,9.20593 C9.80895582,9.01620626 9.55651128,8.90664768 9.2912,8.9007 C8.73332269,8.91936219 8.2821242,9.36110311 8.25165,9.91846 C8.25921258,10.0521909 8.29387043,10.1829905 8.35352,10.30292 C8.40833633,10.4229463 8.48620497,10.5310308 8.5827,10.62103 C8.77861567,10.7934136 9.03135648,10.8872617 9.2923,10.88452 Z" fill="#3576FF" id="Shape"/><path d="M30,55.875 C44.2741376,55.8062083 55.7963276,44.1910968 55.7504665,29.9168671 C55.7046053,15.6426374 44.1080185,4.1018034 29.8337335,4.12473387 C15.5594486,4.14766433 4.00000027,15.7256966 4,30 C4.05076111,44.3181062 15.6818155,55.893242 30,55.875 Z M30,6.125 C43.1695757,6.19376862 53.796362,16.9134441 53.7505153,30.0831195 C53.7046686,43.2527949 43.0035054,53.898223 29.8337702,53.8752983 C16.6640349,53.8523737 5.99999752,43.1697552 6,30 C6.04967695,16.7860145 16.7859352,6.10567421 30,6.125 Z" fill="#3576FF" id="Shape"/><path d="M15.02393,32.78906 C15.6400003,33.1102624 16.3839704,33.0599358 16.95117,32.65869 L24.19092,27.56787 C24.6985081,27.2070259 25.0000021,26.6227794 25.0000021,26 C25.0000021,25.3772206 24.6985081,24.7929741 24.19092,24.43213 L16.95117,19.34131 C16.3838877,18.940297 15.6400509,18.8899794 15.02393,19.21094 C14.3914641,19.5405384 13.9962664,20.195994 14,20.90918 L14,31.09082 C13.9962664,31.804006 14.3914641,32.4594616 15.02393,32.78906 Z M16,21.11719 L22.94385,26 L16,30.88281 L16,21.11719 Z" fill="#3576FF" id="Shape"/><path d="M30,25.05469 L43,25.05469 C44.6568542,25.05469 46,23.7115442 46,22.05469 C46,20.3978358 44.6568542,19.05469 43,19.05469 L30,19.05469 C28.3431458,19.05469 27,20.3978358 27,22.05469 C27,23.7115442 28.3431458,25.05469 30,25.05469 Z M30,21.05469 L43,21.05469 C43.5522847,21.05469 44,21.5024053 44,22.05469 C44,22.6069747 43.5522847,23.05469 43,23.05469 L30,23.05469 C29.4477153,23.05469 29,22.6069747 29,22.05469 C29,21.5024053 29.4477153,21.05469 30,21.05469 Z" fill="#3576FF" id="Shape"/><path d="M30,33.05469 L43.0000001,33.05469 C44.6568544,33.05469 46.0000001,31.7115442 46.0000001,30.05469 C46.0000001,28.3978358 44.6568544,27.05469 43.0000001,27.05469 L30,27.05469 C28.3431458,27.0546901 27.0000001,28.3978358 27.0000001,30.05469 C27.0000001,31.7115442 28.3431458,33.0546899 30,33.05469 Z M30,29.05469 L43,29.05469 C43.5522847,29.05469 44,29.5024053 44,30.05469 C44,30.6069747 43.5522847,31.05469 43,31.05469 L30,31.05469 C29.4477153,31.05469 29,30.6069747 29,30.05469 C29,29.5024053 29.4477153,29.05469 30,29.05469 Z" fill="#3576FF" id="Shape"/><path d="M17,41.05469 L43,41.05469 C44.6568542,41.05469 46,39.7115442 46,38.05469 C46,36.3978358 44.6568542,35.05469 43,35.05469 L17,35.05469 C15.3431458,35.05469 14,36.3978358 14,38.05469 C14,39.7115442 15.3431458,41.05469 17,41.05469 Z M17,37.05469 L43,37.05469 C43.5522847,37.05469 44,37.5024053 44,38.05469 C44,38.6069747 43.5522847,39.05469 43,39.05469 L17,39.05469 C16.4477153,39.05469 16,38.6069747 16,38.05469 C16,37.5024053 16.4477153,37.05469 17,37.05469 Z" fill="#3576FF" id="Shape"/></g></g></g></svg>