<?xml version="1.0" ?><svg height="60px" version="1.1" viewBox="0 0 60 60" width="60px" xmlns="http://www.w3.org/2000/svg" xmlns:xlink="http://www.w3.org/1999/xlink"><title/><desc/><defs><linearGradient id="linearGradient-1" x1="13.6491915%" x2="86.3508085%" y1="16.8383669%" y2="83.1616331%"><stop offset="0%" stop-color="#D3DFF2"/><stop offset="17.173%" stop-color="#D3DFF2"/><stop offset="20%" stop-color="#D3DFF2"/><stop offset="20.016%" stop-color="#DAE2F2"/><stop offset="20.071%" stop-color="#EBEAF2"/><stop offset="20.138%" stop-color="#F6EFF2"/><stop offset="20.232%" stop-color="#FDF2F2"/><stop offset="20.495%" stop-color="#FFF3F2"/><stop offset="25.222%" stop-color="#FFF3F2"/><stop offset="26%" stop-color="#FFF3F2"/><stop offset="26%" stop-color="#D3DFF2"/><stop offset="39.739%" stop-color="#D3DFF2"/><stop offset="42%" stop-color="#D3DFF2"/><stop offset="42.016%" stop-color="#DAE2F2"/><stop offset="42.071%" stop-color="#EBEAF2"/><stop offset="42.138%" stop-color="#F6EFF2"/><stop offset="42.232%" stop-color="#FDF2F2"/><stop offset="42.495%" stop-color="#FFF3F2"/><stop offset="48.939%" stop-color="#FFF3F2"/><stop offset="50%" stop-color="#FFF3F2"/><stop offset="50.003%" stop-color="#F8F0F2"/><stop offset="50.014%" stop-color="#E7E8F2"/><stop offset="50.028%" stop-color="#DCE3F2"/><stop offset="50.047%" stop-color="#D5E0F2"/><stop offset="50.1%" stop-color="#D3DFF2"/><stop offset="70.622%" stop-color="#D3DFF2"/><stop offset="74%" stop-color="#D3DFF2"/><stop offset="74.1%" stop-color="#FFF3F2"/><stop offset="83.459%" stop-color="#FFF3F2"/><stop offset="85%" stop-color="#FFF3F2"/><stop offset="85.1%" stop-color="#D3DFF2"/></linearGradient></defs><g fill="none" fill-rule="evenodd" id="Page-1" stroke="none" stroke-width="1"><g fill-rule="nonzero" id="001---play"><g id="Icons" transform="translate(1.000000, 1.000000)"><path d="M58,29 C57.9846973,36.6755537 54.9206045,44.0305897 49.4819168,49.4467724 C44.0432292,54.8629552 36.6755511,57.896524 29,57.88 C28.33,57.88 27.66,57.86 27,57.8 C11.8148168,56.8192902 1.57651669e-14,44.216819 1.39888101e-14,29 C1.22124533e-14,13.783181 11.8148168,1.18070975 27,0.2 C27.66,0.14 28.33,0.12 29,0.12 C36.6755511,0.103475955 44.0432292,3.13704484 49.4819168,8.55322756 C54.9206045,13.9694103 57.9846973,21.3244463 58,29 Z" fill="#6D9AFA" id="Shape"/><ellipse cx="27" cy="29" fill="#CCDBF2" id="Oval" rx="27" ry="28.79999"/><path d="M55,29 C54.951764,43.3199666 43.3200365,54.8980092 29,54.88 C28.16,54.88 27.33,54.84 26.5,54.76 C13.1870891,53.5358138 3.00007599,42.3690773 3.00007599,29 C3.00007599,15.6309227 13.1870891,4.46418623 26.5,3.24 C27.33,3.16 28.16,3.12 29,3.12 C43.3200433,3.10197426 54.9517805,14.6800265 55,29 Z" fill="#95B4F6" id="Shape"/><ellipse cx="26.5" cy="29" fill="url(#linearGradient-1)" id="Oval" rx="23.5" ry="25.76001"/><path d="M39.57,29.83 L38.18,30.8 L23.55,40.93 C23.2447939,41.1383864 22.8490011,41.1596689 22.5232088,40.9852125 C22.1974166,40.810756 21.9957375,40.4695368 22,40.1 L22,17.9 C21.9957159,17.5304539 22.1973917,17.1892177 22.5231923,17.0147567 C22.8489929,16.8402957 23.2447982,16.8615905 23.55,17.07 L39.57,28.17 C39.8382627,28.3613214 39.9975152,28.6705023 39.9975152,29 C39.9975152,29.3294977 39.8382627,29.6386786 39.57,29.83 Z" fill="#CCDBF2" id="Shape"/><path d="M38.18,30.7999952 L23.55,40.9299999 C23.2447939,41.1383864 22.8490011,41.159669 22.5232088,40.9852124 C22.1974166,40.8107558 21.9957375,40.4695365 22,40.0999995 L21.9999337,19.7899798 C22.1964035,19.7890838 22.3883629,19.8484167 22.55,19.9599901 L38.18,30.7999952 Z" fill="#DEE2F0" id="Shape"/></g><g fill="#FFFFFF" id="Layer_13" transform="translate(2.000000, 1.000000)"><path d="M30.45,57.87 C19.7910404,58.3836418 9.71612985,52.98292 4.24340019,43.8217804 C-1.22932948,34.6606408 -1.20953185,23.2294893 4.29489728,14.0873611 C9.7993264,4.94523284 19.8928835,-0.420559164 30.55,0.13 C15.145871,0.847513201 3.01788694,13.53155 2.99117961,28.9523574 C2.96447229,44.3731649 15.0484487,57.0991344 30.45,57.87 Z" id="Shape"/></g><g id="Outline"><path d="M16.0625,5.85954 C6.29895431,11.530697 0.867413554,22.4858183 2.26408,33.6902 C4.13259087,47.7767905 16.2972378,58.2037674 30.50388,57.89606 C37.360862,57.7107328 43.9194238,55.0515477 48.9693,50.40921 C56.6726139,43.3491532 59.7637298,32.5642258 56.9697725,22.4954995 C54.1758152,12.4267731 45.9692316,4.77682917 35.72937,2.6958 C29.0070992,1.32575349 22.0159589,2.45039358 16.0625,5.85954 L15.0625,4.12754 C21.440152,0.47403859 28.9302157,-0.731351329 36.1321,0.73677 C47.0892108,2.99278297 55.8621968,11.191196 58.8541088,21.9706363 C61.8460208,32.7500766 58.553589,44.297334 50.32672,51.878 C44.9178466,56.851972 37.891333,59.6999425 30.54572,59.89559 C19.3492513,60.1674186 8.94643747,54.1363472 3.61906064,44.2847556 C-1.70831619,34.433164 -1.0599124,22.4260023 5.29739,13.2054 C7.83729371,9.49128474 11.1732383,6.39010055 15.0625,4.12749 L16.0625,5.85954 Z" fill="#FFFFFF" id="Shape"/><path d="M36.13208,0.73676 C28.9302061,-0.731382101 21.4401447,0.473997925 15.0625,4.1275 L13.32526,5.24915 L12.45941,5.8139 L11.65082,6.45898 C11.4374223,6.62178765 11.2991005,6.86411571 11.2674268,7.13065215 C11.2357531,7.39718859 11.3134309,7.66518483 11.48273,7.87347 C11.8280784,8.29304826 12.4426698,8.3660806 12.87673,8.03912 L13.63027,7.4353 L14.44045,6.9093 L16.06245,5.85956 C22.0159184,2.45038926 29.0070809,1.32574134 35.72937,2.6958 C45.9520337,4.80080655 54.1367306,12.4500995 56.9274694,22.5072205 C59.7182081,32.5643416 56.6455173,43.3374339 48.9693,50.40918 C43.9194463,55.0515382 37.3608895,57.7107362 30.50391,57.89606 C20.0565751,58.1522179 10.3488086,52.5255282 5.37803968,43.3329289 C0.407270798,34.1403297 1.01401525,22.9362131 6.94843,14.33417 L7.49298,13.53705 C7.7979463,13.0954139 7.71301483,12.4936685 7.29773,12.15369 C7.08707063,11.9833131 6.8151928,11.9079179 6.54687271,11.9454677 C6.27855262,11.9830174 6.03781618,12.1301499 5.88202,12.35181 L5.29742,13.20538 C-1.03696802,22.4302124 -1.67328076,34.4250218 3.6495651,44.268259 C8.97241095,54.1114961 19.3582561,60.1459444 30.54572,59.89563 C37.8913398,59.6999697 44.9178544,56.851981 50.32672,51.87799 C58.5806943,44.3090149 61.8915517,32.749919 58.8964148,21.9588751 C55.9012779,11.1678311 47.1063945,2.96877631 36.13208,0.73676 Z" fill="#3576FF" id="Shape"/><path d="M8.5827,10.62109 C8.9882097,10.97915 9.5991306,10.9714442 9.99548,10.60327 C10.1759952,10.4198835 10.2789839,10.1740427 10.28308,9.91675 L10.26257,9.72717 C10.2503813,9.66084378 10.2296837,9.59636791 10.20099,9.53534 C10.1819242,9.47455471 10.1540838,9.4168795 10.11835,9.36414 C10.0806939,9.30866448 10.039319,9.25580654 9.99451,9.20593 C9.80894043,9.01622861 9.55650547,8.90667418 9.2912,8.9007 C8.73332269,8.91936219 8.2821242,9.36110311 8.25165,9.91846 C8.25921258,10.0521909 8.29387043,10.1829905 8.35352,10.30292 C8.40832935,10.4229679 8.48619839,10.5310733 8.5827,10.62109 Z" fill="#3576FF" id="Shape"/><path d="M30,55.875 C44.2741376,55.8062083 55.7963276,44.1910968 55.7504665,29.9168671 C55.7046053,15.6426374 44.1080185,4.1018034 29.8337335,4.12473387 C15.5594486,4.14766433 4.00000027,15.7256966 4,30 C4.05076111,44.3181062 15.6818155,55.893242 30,55.875 Z M30,6.125 C43.1695757,6.19376862 53.796362,16.9134441 53.7505153,30.0831195 C53.7046686,43.2527949 43.0035054,53.898223 29.8337702,53.8752983 C16.6640349,53.8523737 5.99999752,43.1697552 6,30 C6.04967695,16.7860145 16.7859352,6.10567421 30,6.125 Z" fill="#3576FF" id="Shape"/><path d="M23.07031,42.87842 C23.7220697,43.2205642 24.5100969,43.171432 25.11431,42.75098 L41.14014,31.647 C41.6789587,31.2716985 42.0000983,30.6565426 42.0000006,29.9999021 C41.9999029,29.3432615 41.6785803,28.7282012 41.13965,28.35306 L25.11475,17.249 C24.5102992,16.8287604 23.72227,16.7796387 23.07031,17.12156 C22.4103826,17.4669837 21.997712,18.15114 22,18.896 L22,41.104 C21.9977195,41.8488528 22.410389,42.5329996 23.07031,42.87842 Z M24,18.90967 L40.001,30.00342 L24,41.104 L24,18.90967 Z" fill="#3576FF" id="Shape"/></g></g></g></svg>