<?xml version="1.0" ?><svg height="60px" version="1.1" viewBox="0 0 60 60" width="60px" xmlns="http://www.w3.org/2000/svg" xmlns:xlink="http://www.w3.org/1999/xlink"><title/><desc/><defs><linearGradient id="linearGradient-1" x1="13.6491915%" x2="86.3508085%" y1="16.8383863%" y2="83.1616331%"><stop offset="0%" stop-color="#D3DFF2"/><stop offset="17.173%" stop-color="#D3DFF2"/><stop offset="20%" stop-color="#D3DFF2"/><stop offset="20.016%" stop-color="#DAE2F2"/><stop offset="20.071%" stop-color="#EBEAF2"/><stop offset="20.138%" stop-color="#F6EFF2"/><stop offset="20.232%" stop-color="#FDF2F2"/><stop offset="20.495%" stop-color="#FFF3F2"/><stop offset="25.222%" stop-color="#FFF3F2"/><stop offset="26%" stop-color="#FFF3F2"/><stop offset="26%" stop-color="#D3DFF2"/><stop offset="39.739%" stop-color="#D3DFF2"/><stop offset="42%" stop-color="#D3DFF2"/><stop offset="42.016%" stop-color="#DAE2F2"/><stop offset="42.071%" stop-color="#EBEAF2"/><stop offset="42.138%" stop-color="#F6EFF2"/><stop offset="42.232%" stop-color="#FDF2F2"/><stop offset="42.495%" stop-color="#FFF3F2"/><stop offset="48.939%" stop-color="#FFF3F2"/><stop offset="50%" stop-color="#FFF3F2"/><stop offset="50.003%" stop-color="#F8F0F2"/><stop offset="50.014%" stop-color="#E7E8F2"/><stop offset="50.028%" stop-color="#DCE3F2"/><stop offset="50.047%" stop-color="#D5E0F2"/><stop offset="50.1%" stop-color="#D3DFF2"/><stop offset="70.622%" stop-color="#D3DFF2"/><stop offset="74%" stop-color="#D3DFF2"/><stop offset="74.1%" stop-color="#FFF3F2"/><stop offset="83.459%" stop-color="#FFF3F2"/><stop offset="85%" stop-color="#FFF3F2"/><stop offset="85.1%" stop-color="#D3DFF2"/></linearGradient></defs><g fill="none" fill-rule="evenodd" id="Page-1" stroke="none" stroke-width="1"><g fill-rule="nonzero" id="011---Share"><g id="Icons" transform="translate(1.000000, 1.000000)"><path d="M30,22.125 C27.2385763,22.125 25,19.8864237 25,17.125 C25,14.3635763 27.2385763,12.125 30,12.125 C32.7614237,12.125 35,14.3635763 35,17.125 C34.9967599,19.8850805 32.7600805,22.1217599 30,22.125 Z M30,14.125 C28.3431458,14.125 27,15.4681458 27,17.125 C27,18.7818542 28.3431458,20.125 30,20.125 C31.6568542,20.125 33,18.7818542 33,17.125 C32.9981923,15.4688951 31.6561049,14.1268077 30,14.125 Z" fill="#46B29D" id="Shape"/><path d="M20,35.125 C16.6862915,35.125 14,32.4387085 14,29.125 C14,25.8112915 16.6862915,23.125 20,23.125 C23.3137085,23.125 26,25.8112915 26,29.125 C25.9963791,32.4372075 23.3122075,35.1213791 20,35.125 Z M20,25.125 C17.790861,25.125 16,26.915861 16,29.125 C16,31.334139 17.790861,33.125 20,33.125 C22.209139,33.125 24,31.334139 24,29.125 C23.9974761,26.9169073 22.2080927,25.1275239 20,25.125 Z" fill="#46B29D" id="Shape"/><path d="M37,46.125 C33.1340068,46.125 30,42.9909932 30,39.125 C30,35.2590068 33.1340068,32.125 37,32.125 C40.8659932,32.125 44,35.2590068 44,39.125 C43.9956629,42.9891953 40.8641953,46.1206629 37,46.125 Z M37,34.125 C34.9776888,34.125 33.1545073,35.3432109 32.3806023,37.2115828 C31.6066973,39.0799548 32.0344761,41.2305439 33.4644661,42.6605339 C34.8944561,44.0905239 37.0450452,44.5183027 38.9134172,43.7443977 C40.7817891,42.9704927 42,41.1473112 42,39.125 C41.9967599,36.3649195 39.7600805,34.1282401 37,34.125 Z" fill="#46B29D" id="Shape"/><path d="M23.19971,26.28516 C22.8117368,26.285087 22.4588192,26.0606115 22.2942812,25.7092563 C22.1297432,25.3579012 22.1832828,24.9430836 22.43164,24.64502 L26.67139,19.55469 C26.9000954,19.2801117 27.2579136,19.1484038 27.610058,19.2091793 C27.9622024,19.2699548 28.2551739,19.5139806 28.378613,19.8493343 C28.5020521,20.1846881 28.4372054,20.5604217 28.2085,20.835 L23.96875,25.92533 C23.7787145,26.1537281 23.4968278,26.2856215 23.19971,26.28516 Z" fill="#46B29D" id="Shape"/><path d="M31.8291,37.085 C31.6508489,37.0850234 31.4758437,37.0373107 31.32227,36.94682 L23.80227,32.51664 C23.493461,32.3356614 23.3048863,32.0034737 23.3077751,31.645552 C23.310664,31.2876304 23.5045761,30.9585298 23.8162661,30.7825594 C24.1279561,30.606589 24.5099159,30.6105705 24.81787,30.793 L32.33787,35.22317 C32.7267276,35.4521702 32.9140463,35.9132238 32.7950902,36.3485406 C32.676134,36.7838575 32.2803771,37.0855778 31.8291,37.085 Z" fill="#46B29D" id="Shape"/><path d="M58,29.005 C57.9846946,36.6805529 54.920601,44.0355874 49.4819139,49.4517695 C44.0432269,54.8679516 36.6755503,57.9015214 29,57.885 C28.33,57.885 27.66,57.865 27,57.805 C11.8148168,56.8242902 9.32587341e-15,44.221819 7.54951657e-15,29.005 C5.77315973e-15,13.788181 11.8148168,1.18570975 27,0.205 C27.66,0.145 28.33,0.125 29,0.125 C36.6755511,0.108475955 44.0432292,3.14204484 49.4819168,8.55822756 C54.9206045,13.9744103 57.9846973,21.3294463 58,29.005 Z" fill="#6D9AFA" id="Shape"/><ellipse cx="27" cy="29.005" fill="#CCDBF2" id="Oval" rx="27" ry="28.79999"/><path d="M55,29.005 C54.9517585,43.3249643 43.3200343,54.9030037 29,54.885 C28.16,54.885 27.33,54.845 26.5,54.765 C13.1870891,53.5408138 3.00007599,42.3740773 3.00007599,29.005 C3.00007599,15.6359227 13.1870891,4.46918623 26.5,3.245 C27.33,3.165 28.16,3.125 29,3.125 C43.3200433,3.10697426 54.9517805,14.6850265 55,29.005 Z" fill="#95B4F6" id="Shape"/><ellipse cx="26.5" cy="29.005" fill="url(#linearGradient-1)" id="Oval" rx="23.5" ry="25.76001"/><path d="M34,17.125 C34.0002892,18.1859546 33.5789547,19.2035383 32.8287465,19.9537465 C32.0785383,20.7039547 31.0609546,21.1252892 30,21.125 C29.4847159,21.1289414 28.974131,21.0268244 28.5,20.825 C26.9895658,20.2175605 26,18.7530031 26,17.125 C26,15.4969969 26.9895658,14.0324395 28.5,13.425 C28.9741222,13.2231474 29.4847131,13.1210292 30,13.125 C31.0609579,13.1247002 32.0785477,13.5460312 32.8287583,14.2962417 C33.5789688,15.0464523 34.0002998,16.0640421 34,17.125 Z" fill="#95B4F6" id="Shape"/><ellipse cx="28.5" cy="17.125" fill="#DEE2F0" id="Oval" rx="2.5" ry="3.70001"/><path d="M25.0000066,29.125 C24.9990077,31.8860099 22.761015,34.1240011 20.0000033,34.125 C19.4920791,34.1234521 18.9869791,34.0493709 18.5000023,33.905 C16.4161239,33.2449313 15.0000066,31.3109172 15.0000066,29.125 C15.0000066,26.9390828 16.4161239,25.0050687 18.5000023,24.345 C18.9869791,24.2006287 19.4920791,24.1265474 20.0000033,24.125 C22.761015,24.1259989 24.9990077,26.3639901 25.0000066,29.125 Z" fill="#95B4F6" id="Shape"/><ellipse cx="18.5" cy="29.12498" fill="#DEE2F0" id="Oval" rx="3.5" ry="4.77998"/><path d="M43,39.125 C42.9973806,42.4376229 40.3126229,45.1223806 37,45.125 C36.4940977,45.1234592 35.990309,45.0596459 35.5,44.935 C32.8513101,44.2532282 30.9999849,41.8650267 30.9999849,39.13 C30.9999849,36.3949733 32.8513101,34.0067718 35.5,33.325 C35.9889231,33.1921326 36.4933448,33.1248763 37,33.125 C40.3126229,33.1276194 42.9973806,35.8123771 43,39.125 Z" fill="#95B4F6" id="Shape"/><path d="M40,39.125 C39.9936791,41.8589376 38.1454831,44.2451639 35.5,44.935 C32.8513101,44.2532282 30.9999849,41.8650267 30.9999849,39.13 C30.9999849,36.3949733 32.8513101,34.0067718 35.5,33.325 C38.146083,34.0075279 39.9963462,36.3923116 40,39.125 Z" fill="#DEE2F0" id="Shape"/></g><g fill="#FFFFFF" id="Layer_13" transform="translate(2.000000, 1.000000)"><path d="M30.45,57.87 C19.7910404,58.3836418 9.71612985,52.98292 4.24340019,43.8217804 C-1.22932948,34.6606408 -1.20953185,23.2294893 4.29489728,14.0873611 C9.7993264,4.94523284 19.8928835,-0.420559164 30.55,0.13 C15.145871,0.847513201 3.01788694,13.53155 2.99117961,28.9523574 C2.96447229,44.3731649 15.0484487,57.0991344 30.45,57.87 Z" id="Shape"/></g><g id="Outline"><path d="M16.0625,5.85953 C6.29896358,11.5307105 0.867428189,22.4858327 2.26408,33.69022 C4.13260446,47.7768002 16.2972462,58.203764 30.50388,57.89606 C37.3608611,57.7107283 43.9194214,55.0515438 48.9693,50.40921 C56.6726139,43.3491532 59.7637298,32.5642258 56.9697725,22.4954995 C54.1758152,12.4267731 45.9692316,4.77682917 35.72937,2.6958 C29.0071003,1.32575514 22.0159617,2.45039139 16.0625,5.85953 L15.0625,4.12753 C21.4401523,0.474029468 28.9302157,-0.731360397 36.1321,0.73676 C47.0892105,2.99277691 55.862195,11.1911918 58.8541066,21.9706328 C61.8460182,32.7500737 58.5535875,44.2973316 50.32672,51.878 C44.9178382,56.8519614 37.8913313,59.6999363 30.54572,59.89561 C19.349247,60.1674271 8.94643444,54.1363468 3.61905922,44.2847498 C-1.708316,34.4331527 -1.05991178,22.4259877 5.29739,13.20538 C7.83730046,9.4912785 11.1732441,6.39010546 15.0625,4.1275 L16.0625,5.85953 Z" fill="#FFFFFF" id="Shape"/><path d="M36.13208,0.73676 C28.9302061,-0.731382101 21.4401447,0.473997925 15.0625,4.1275 L13.32526,5.24908 L12.45941,5.8139 L11.65082,6.45898 C11.4374223,6.62178765 11.2991005,6.86411571 11.2674268,7.13065215 C11.2357531,7.39718859 11.3134309,7.66518483 11.48273,7.87347 C11.8280784,8.29304826 12.4426698,8.3660806 12.87673,8.03912 L13.63027,7.4353 L14.44045,6.9093 L16.06245,5.8595 C22.0159354,2.45037612 29.0070876,1.3257512 35.72937,2.6958 C45.9520337,4.80080655 54.1367306,12.4500995 56.9274694,22.5072205 C59.7182081,32.5643416 56.6455173,43.3374339 48.9693,50.40918 C43.9194306,55.0515134 37.3608835,57.7107075 30.50391,57.89606 C20.0565751,58.1522179 10.3488086,52.5255282 5.37803968,43.3329289 C0.407270798,34.1403297 1.01401525,22.9362131 6.94843,14.33417 L7.49298,13.53705 C7.7979463,13.0954139 7.71301483,12.4936685 7.29773,12.15369 C7.08707063,11.9833131 6.8151928,11.9079179 6.54687271,11.9454677 C6.27855262,11.9830174 6.03781618,12.1301499 5.88202,12.35181 L5.29742,13.20538 C-1.03696802,22.4302124 -1.67328076,34.4250218 3.6495651,44.268259 C8.97241095,54.1114961 19.3582561,60.1459444 30.54572,59.89563 C37.8913336,59.69994 44.9178382,56.8519553 50.32672,51.87799 C58.5806943,44.3090149 61.8915517,32.749919 58.8964148,21.9588751 C55.9012779,11.1678311 47.1063945,2.96877631 36.13208,0.73676 Z" fill="#3576FF" id="Shape"/><path d="M9.2923,10.88452 C9.55342411,10.8810313 9.80397457,10.780819 9.99548,10.60327 C10.1759952,10.4198835 10.2789839,10.1740427 10.28308,9.91675 L10.26257,9.72711 C10.2503725,9.66080525 10.2296751,9.59635034 10.20099,9.53534 C10.1819365,9.47454985 10.1540952,9.41687291 10.11835,9.36414 C10.0806939,9.30866448 10.039319,9.25580654 9.99451,9.20593 C9.80895582,9.01620626 9.55651128,8.90664768 9.2912,8.9007 C8.73332269,8.91936219 8.2821242,9.36110311 8.25165,9.91846 C8.25921258,10.0521909 8.29387043,10.1829905 8.35352,10.30292 C8.40831508,10.4229587 8.48618653,10.531047 8.5827,10.62103 C8.77861024,10.7934226 9.03135466,10.8872722 9.2923,10.88452 Z" fill="#3576FF" id="Shape"/><path d="M30,55.875 C44.2741376,55.8062083 55.7963276,44.1910968 55.7504665,29.9168671 C55.7046053,15.6426374 44.1080185,4.1018034 29.8337335,4.12473387 C15.5594486,4.14766433 4.00000027,15.7256966 4,30 C4.05076111,44.3181062 15.6818155,55.893242 30,55.875 Z M30,6.125 C43.1695757,6.19376862 53.796362,16.9134441 53.7505153,30.0831195 C53.7046686,43.2527949 43.0035054,53.898223 29.8337702,53.8752983 C16.6640349,53.8523737 5.99999752,43.1697552 6,30 C6.04967695,16.7860145 16.7859352,6.10567421 30,6.125 Z" fill="#3576FF" id="Shape"/><path d="M21,36 C22.772056,35.9998788 24.453026,35.2147826 25.59052,33.856 L31.524,37.3515 C30.1202146,40.7603649 31.5892835,44.6745432 34.8892978,46.3179785 C38.189312,47.9614139 42.1983342,46.775372 44.0730421,43.6010304 C45.9477499,40.4266889 45.0507809,36.3432587 42.0182934,34.2468349 C38.9858058,32.1504111 34.8487833,32.7537347 32.54133,35.62891 L26.60233,32.13007 C27.392001,30.080437 26.9879306,27.7624418 25.55133,26.10089 L28.64697,22.38428 C29.3676721,22.7825887 30.1765752,22.9942553 31,23 C33.7614237,23 36,20.7614237 36,18 C36,15.2385763 33.7614237,13 31,13 C28.2385763,13 26,15.2385763 26,18 C26.0048973,19.1308262 26.3968323,20.2258868 27.1106,21.103 L24.01428,24.8204 C21.8328887,23.5503593 19.0897432,23.7822065 17.1524579,25.4003526 C15.2151725,27.0184987 14.4985122,29.6765052 15.3597729,32.0492043 C16.2210336,34.4219035 18.475823,36.0013101 21,36 Z M38,35 C40.7614237,35 43,37.2385763 43,40 C43,42.7614237 40.7614237,45 38,45 C35.2385763,45 33,42.7614237 33,40 C33.0032401,37.2399195 35.2399195,35.0032401 38,35 Z M31,15 C32.6568542,15 34,16.3431458 34,18 C34,19.6568542 32.6568542,21 31,21 C29.3431458,21 28,19.6568542 28,18 C28.0018077,16.3438951 29.3438951,15.0018077 31,15 Z M21,26 C23.209139,26 25,27.790861 25,30 C25,32.209139 23.209139,34 21,34 C18.790861,34 17,32.209139 17,30 C17.0025239,27.7919073 18.7919073,26.0025239 21,26 Z" fill="#3576FF" id="Shape"/></g></g></g></svg>