<?xml version="1.0" ?><svg height="60px" version="1.1" viewBox="0 0 60 60" width="60px" xmlns="http://www.w3.org/2000/svg" xmlns:xlink="http://www.w3.org/1999/xlink"><title/><desc/><defs><linearGradient id="linearGradient-1" x1="13.6491915%" x2="86.3508085%" y1="16.8383669%" y2="83.1616331%"><stop offset="0%" stop-color="#D3DFF2"/><stop offset="17.173%" stop-color="#D3DFF2"/><stop offset="20%" stop-color="#D3DFF2"/><stop offset="20.016%" stop-color="#DAE2F2"/><stop offset="20.071%" stop-color="#EBEAF2"/><stop offset="20.138%" stop-color="#F6EFF2"/><stop offset="20.232%" stop-color="#FDF2F2"/><stop offset="20.495%" stop-color="#FFF3F2"/><stop offset="25.222%" stop-color="#FFF3F2"/><stop offset="26%" stop-color="#FFF3F2"/><stop offset="26%" stop-color="#D3DFF2"/><stop offset="39.739%" stop-color="#D3DFF2"/><stop offset="42%" stop-color="#D3DFF2"/><stop offset="42.016%" stop-color="#DAE2F2"/><stop offset="42.071%" stop-color="#EBEAF2"/><stop offset="42.138%" stop-color="#F6EFF2"/><stop offset="42.232%" stop-color="#FDF2F2"/><stop offset="42.495%" stop-color="#FFF3F2"/><stop offset="48.939%" stop-color="#FFF3F2"/><stop offset="50%" stop-color="#FFF3F2"/><stop offset="50.003%" stop-color="#F8F0F2"/><stop offset="50.014%" stop-color="#E7E8F2"/><stop offset="50.028%" stop-color="#DCE3F2"/><stop offset="50.047%" stop-color="#D5E0F2"/><stop offset="50.1%" stop-color="#D3DFF2"/><stop offset="70.622%" stop-color="#D3DFF2"/><stop offset="74%" stop-color="#D3DFF2"/><stop offset="74.1%" stop-color="#FFF3F2"/><stop offset="83.459%" stop-color="#FFF3F2"/><stop offset="85%" stop-color="#FFF3F2"/><stop offset="85.1%" stop-color="#D3DFF2"/></linearGradient></defs><g fill="none" fill-rule="evenodd" id="Page-1" stroke="none" stroke-width="1"><g fill-rule="nonzero" id="004---Pause"><g id="Icons" transform="translate(1.000000, 1.000000)"><path d="M58,29 C57.9846973,36.6755537 54.9206045,44.0305897 49.4819168,49.4467724 C44.0432292,54.8629552 36.6755511,57.896524 29,57.88 C28.33,57.88 27.66,57.86 27,57.8 C11.8148168,56.8192902 1.57651669e-14,44.216819 1.39888101e-14,29 C1.22124533e-14,13.783181 11.8148168,1.18070975 27,0.2 C27.66,0.14 28.33,0.12 29,0.12 C36.6755511,0.103475955 44.0432292,3.13704484 49.4819168,8.55322756 C54.9206045,13.9694103 57.9846973,21.3244463 58,29 Z" fill="#6D9AFA" id="Shape"/><ellipse cx="27" cy="29" fill="#CCDBF2" id="Oval" rx="27" ry="28.79999"/><path d="M55,29 C54.951764,43.3199666 43.3200365,54.8980092 29,54.88 C28.16,54.88 27.33,54.84 26.5,54.76 C13.1870891,53.5358138 3.00007599,42.3690773 3.00007599,29 C3.00007599,15.6309227 13.1870891,4.46418623 26.5,3.24 C27.33,3.16 28.16,3.12 29,3.12 C43.3200433,3.10197426 54.9517805,14.6800265 55,29 Z" fill="#95B4F6" id="Shape"/><ellipse cx="26.5" cy="29" fill="url(#linearGradient-1)" id="Oval" rx="23.5" ry="25.76001"/><path d="M26,21 L26,37 C25.9967543,38.1032223 25.1032223,38.9967543 24,39 L22,39 C21.8307578,39.0020017 21.6621858,38.9784016 21.5,38.93 C20.6183916,38.7039904 20.001391,37.9101164 20,37 L20,21 C20.0013698,20.0898763 20.6183793,19.2959908 21.5,19.07 C21.6621792,19.0215683 21.8307558,18.9979676 22,19 L24,19 C25.1032314,19.0032238 25.9967762,19.8967686 26,21 Z" fill="#CCDBF2" id="Shape"/><path d="M38,21 L38,37 C37.9967543,38.1032223 37.1032223,38.9967543 36,39 L34,39 C33.8307578,39.0020017 33.6621858,38.9784016 33.5,38.93 C32.6183916,38.7039904 32.001391,37.9101164 32,37 L32,21 C32.0013698,20.0898763 32.6183793,19.2959908 33.5,19.07 C33.6621792,19.0215683 33.8307558,18.9979676 34,19 L36,19 C37.1032314,19.0032238 37.9967762,19.8967686 38,21 Z" fill="#CCDBF2" id="Shape"/><path d="M23,21 L23,37 C22.998609,37.9101164 22.3816084,38.7039904 21.5,38.93 C20.6183916,38.7039904 20.001391,37.9101164 20,37 L20,21 C20.0013698,20.0898763 20.6183793,19.2959908 21.5,19.07 C22.3816207,19.2959908 22.9986302,20.0898763 23,21 Z" fill="#DEE2F0" id="Shape"/><path d="M35,21 L35,37 C34.998609,37.9101164 34.3816084,38.7039904 33.5,38.93 C32.6183916,38.7039904 32.001391,37.9101164 32,37 L32,21 C32.0013698,20.0898763 32.6183793,19.2959908 33.5,19.07 C34.3816207,19.2959908 34.9986302,20.0898763 35,21 Z" fill="#DEE2F0" id="Shape"/></g><g fill="#FFFFFF" id="Layer_13" transform="translate(2.000000, 1.000000)"><path d="M30.45,57.87 C19.7910404,58.3836418 9.71612985,52.98292 4.24340019,43.8217804 C-1.22932948,34.6606408 -1.20953185,23.2294893 4.29489728,14.0873611 C9.7993264,4.94523284 19.8928835,-0.420559164 30.55,0.13 C15.145871,0.847513201 3.01788694,13.53155 2.99117961,28.9523574 C2.96447229,44.3731649 15.0484487,57.0991344 30.45,57.87 Z" id="Shape"/></g><g id="Outline"><path d="M16.0625,5.85954 C6.29894035,11.5306848 0.867391835,22.4858138 2.26407,33.6902 C4.13258987,47.7767897 16.2972374,58.2037634 30.50388,57.89606 C37.3608645,57.7107444 43.9194302,55.0515578 48.9693,50.40921 C56.6726139,43.3491532 59.7637298,32.5642258 56.9697725,22.4954995 C54.1758152,12.4267731 45.9692316,4.77682917 35.72937,2.6958 C29.0070992,1.32575443 22.0159592,2.45039446 16.0625,5.85954 L15.0625,4.12754 C21.4401455,0.474040843 28.9302022,-0.731349087 36.13208,0.73677 C47.0891847,2.99279027 55.8621646,11.1912007 58.8540793,21.9706356 C61.845994,32.7500706 58.5535746,44.2973249 50.32672,51.878 C44.9178446,56.8519689 37.8913323,59.6999389 30.54572,59.89559 C19.3492482,60.1674261 8.94642846,54.1363559 3.61905007,44.2847613 C-1.70832833,34.4331668 -1.05992035,22.4260009 5.29739,13.2054 C7.83729371,9.49128474 11.1732383,6.39010055 15.0625,4.12749 L16.0625,5.85954 Z" fill="#FFFFFF" id="Shape"/><path d="M36.13208,0.73676 C28.930206,-0.731377442 21.4401462,0.474002318 15.0625,4.1275 L13.32526,5.24915 L12.45941,5.8139 L11.65082,6.45898 C11.4374223,6.62178765 11.2991005,6.86411571 11.2674268,7.13065215 C11.2357531,7.39718859 11.3134309,7.66518483 11.48273,7.87347 C11.8280784,8.29304826 12.4426698,8.3660806 12.87673,8.03912 L13.63027,7.4353 L14.44045,6.9093 L16.06245,5.85956 C22.0159184,2.45038926 29.0070809,1.32574134 35.72937,2.6958 C45.9520337,4.80080655 54.1367306,12.4500995 56.9274694,22.5072205 C59.7182081,32.5643416 56.6455173,43.3374339 48.9693,50.40918 C43.9194463,55.0515382 37.3608895,57.7107362 30.50391,57.89606 C20.0565751,58.1522179 10.3488086,52.5255282 5.37803968,43.3329289 C0.407270798,34.1403297 1.01401525,22.9362131 6.94843,14.33417 L7.49304,13.53705 C7.79797623,13.0954068 7.7130479,12.4936836 7.29779,12.15369 C7.08711957,11.9833133 6.8152333,11.9079188 6.5469046,11.9454682 C6.2785759,11.9830175 6.03782945,12.1301489 5.88202,12.35181 L5.29742,13.20538 C-1.03696802,22.4302124 -1.67328076,34.4250218 3.6495651,44.268259 C8.97241095,54.1114961 19.3582561,60.1459444 30.54572,59.89563 C37.8913398,59.6999697 44.9178544,56.851981 50.32672,51.87799 C58.5806943,44.3090149 61.8915517,32.749919 58.8964148,21.9588751 C55.9012779,11.1678311 47.1063945,2.96877631 36.13208,0.73676 Z" fill="#3576FF" id="Shape"/><path d="M8.5827,10.62109 C8.9882097,10.97915 9.5991306,10.9714442 9.99548,10.60327 C10.1759952,10.4198835 10.2789839,10.1740427 10.28308,9.91675 L10.26257,9.72717 C10.2503813,9.66084378 10.2296837,9.59636791 10.20099,9.53534 C10.1819536,9.47454307 10.1541112,9.4168637 10.11835,9.36414 C10.080713,9.30865054 10.0393371,9.25579134 9.99451,9.20593 C9.80894043,9.01622861 9.55650547,8.90667418 9.2912,8.9007 C8.73332269,8.91936219 8.2821242,9.36110311 8.25165,9.91846 C8.25921258,10.0521909 8.29387043,10.1829905 8.35352,10.30292 C8.40834967,10.4229561 8.48621602,10.5310578 8.5827,10.62109 Z" fill="#3576FF" id="Shape"/><path d="M30,55.875 C44.2741376,55.8062083 55.7963276,44.1910968 55.7504665,29.9168671 C55.7046053,15.6426374 44.1080185,4.1018034 29.8337335,4.12473387 C15.5594486,4.14766433 4.00000027,15.7256966 4,30 C4.05076111,44.3181062 15.6818155,55.893242 30,55.875 Z M30,6.125 C43.1695757,6.19376862 53.796362,16.9134441 53.7505153,30.0831195 C53.7046686,43.2527949 43.0035054,53.898223 29.8337702,53.8752983 C16.6640349,53.8523737 5.99999752,43.1697552 6,30 C6.04967695,16.7860145 16.7859352,6.10567421 30,6.125 Z" fill="#3576FF" id="Shape"/><path d="M23,41 L25,41 C26.6561049,40.9981923 27.9981923,39.6561049 28,38 L28,22 C27.9981923,20.3438951 26.6561049,19.0018077 25,19 L23,19 C21.3438951,19.0018077 20.0018077,20.3438951 20,22 L20,38 C20.0018077,39.6561049 21.3438951,40.9981923 23,41 Z M22,22 C22.0007162,21.4480122 22.4480122,21.0007162 23,21 L25,21 C25.5519878,21.0007162 25.9992838,21.4480122 26,22 L26,38 C25.9992838,38.5519878 25.5519878,38.9992838 25,39 L23,39 C22.4480122,38.9992838 22.0007162,38.5519878 22,38 L22,22 Z" fill="#3576FF" id="Shape"/><path d="M35,41 L37,41 C38.6561049,40.9981923 39.9981923,39.6561049 40,38 L40,22 C39.9981923,20.3438951 38.6561049,19.0018077 37,19 L35,19 C33.3438951,19.0018077 32.0018077,20.3438951 32,22 L32,38 C32.0018077,39.6561049 33.3438951,40.9981923 35,41 Z M34,22 C34.0007162,21.4480122 34.4480122,21.0007162 35,21 L37,21 C37.5519878,21.0007162 37.9992838,21.4480122 38,22 L38,38 C37.9992838,38.5519878 37.5519878,38.9992838 37,39 L35,39 C34.4480122,38.9992838 34.0007162,38.5519878 34,38 L34,22 Z" fill="#3576FF" id="Shape"/></g></g></g></svg>